<?xml version="1.0" encoding="utf-8"?>
<!-- Generator: Adobe Illustrator 24.1.1, SVG Export Plug-In . SVG Version: 6.00 Build 0)  -->
<svg version="1.1" xmlns="http://www.w3.org/2000/svg" xmlns:xlink="http://www.w3.org/1999/xlink" x="0px" y="0px"
	 viewBox="0 0 500 500" style="enable-background:new 0 0 500 500;" xml:space="preserve">
<style type="text/css">
	.st0{opacity:0.01;}
	.st1{fill:#00D5FF;}
	.st2{opacity:0.03;}
	.st3{opacity:0.05;}
	.st4{opacity:0.06;}
	.st5{opacity:0.08;}
	.st6{opacity:0.09;}
	.st7{opacity:0.1;}
	.st8{opacity:0.11;}
	.st9{opacity:0.12;}
	.st10{opacity:0.2;}
	.st11{fill:#FFFFFF;}
	.st12{opacity:0.4;}
	.st13{opacity:0.6;}
</style>
<g>
	<g class="st0">
		<path class="st1" d="M397.43,466.45c-17.66,0-35.32-6.74-48.79-20.21L53.78,151.39c-26.95-26.95-26.95-70.63,0-97.58
			c26.95-26.94,70.63-26.94,97.58,0l294.85,294.85c26.95,26.95,26.95,70.63,0,97.58C432.74,459.72,415.08,466.45,397.43,466.45z"/>
		<path class="st1" d="M102.57,466.45c-17.66,0-35.32-6.74-48.79-20.21c-26.95-26.95-26.95-70.63,0-97.58L348.64,53.81
			c26.95-26.94,70.63-26.94,97.58,0c26.95,26.95,26.95,70.63,0,97.58L151.36,446.24C137.89,459.72,120.23,466.45,102.57,466.45z"/>
	</g>
	<g class="st2">
		<path class="st1" d="M397.43,462.7c-16.7,0-33.4-6.37-46.14-19.11L56.44,148.74c-25.48-25.48-25.48-66.8,0-92.28
			c25.48-25.48,66.8-25.48,92.28,0l294.85,294.85c25.48,25.48,25.48,66.8,0,92.28C430.82,456.33,414.13,462.7,397.43,462.7z"/>
		<path class="st1" d="M102.57,462.7c-16.7,0-33.4-6.37-46.14-19.11c-25.48-25.48-25.48-66.8,0-92.28L351.29,56.46
			c25.48-25.48,66.8-25.48,92.28,0c25.48,25.48,25.48,66.8,0,92.28L148.71,443.59C135.97,456.33,119.27,462.7,102.57,462.7z"/>
	</g>
	<g class="st3">
		<path class="st1" d="M397.43,458.95c-15.74,0-31.48-6-43.49-18.01L59.09,146.09c-24.02-24.02-24.02-62.96,0-86.97
			c24.02-24.02,62.96-24.02,86.97,0l294.85,294.85c24.02,24.02,24.02,62.96,0,86.97C428.9,452.95,413.17,458.95,397.43,458.95z"/>
		<path class="st1" d="M102.57,458.95c-15.74,0-31.48-6-43.49-18.01c-24.02-24.02-24.02-62.96,0-86.97L353.94,59.11
			c24.02-24.02,62.96-24.02,86.97,0c24.02,24.02,24.02,62.96,0,86.97L146.06,440.94C134.05,452.95,118.31,458.95,102.57,458.95z"/>
	</g>
	<g class="st3">
		<path class="st1" d="M397.43,455.2c-14.78,0-29.56-5.64-40.84-16.91L61.74,143.44c-22.55-22.55-22.55-59.12,0-81.67
			c22.55-22.55,59.12-22.55,81.67,0l294.85,294.85c22.55,22.55,22.55,59.12,0,81.67C426.99,449.57,412.21,455.2,397.43,455.2z"/>
		<path class="st1" d="M102.57,455.2c-14.78,0-29.56-5.64-40.84-16.91c-22.55-22.55-22.55-59.12,0-81.67L356.59,61.77
			c22.55-22.55,59.12-22.55,81.67,0c22.55,22.55,22.55,59.12,0,81.67L143.41,438.29C132.13,449.57,117.35,455.2,102.57,455.2z"/>
	</g>
	<g class="st4">
		<path class="st1" d="M397.43,451.45c-13.82,0-27.64-5.27-38.18-15.82L64.39,140.79c-21.09-21.09-21.09-55.28,0-76.37
			c21.09-21.09,55.28-21.09,76.37,0l294.85,294.85c21.09,21.09,21.09,55.28,0,76.37C425.07,446.18,411.25,451.45,397.43,451.45z"/>
		<path class="st1" d="M102.57,451.45c-13.82,0-27.64-5.27-38.18-15.82c-21.09-21.09-21.09-55.28,0-76.37L359.24,64.42
			c21.09-21.09,55.28-21.09,76.37,0c21.09,21.09,21.09,55.28,0,76.37L140.76,435.64C130.21,446.18,116.39,451.45,102.57,451.45z"/>
	</g>
	<g class="st5">
		<path class="st1" d="M397.43,447.7c-12.86,0-25.72-4.91-35.53-14.72L67.04,138.13c-19.62-19.62-19.62-51.44,0-71.07
			c19.63-19.62,51.44-19.62,71.07,0l294.85,294.85c19.62,19.62,19.62,51.44,0,71.07C423.15,442.8,410.29,447.7,397.43,447.7z"/>
		<path class="st1" d="M102.57,447.7c-12.86,0-25.72-4.91-35.53-14.72c-19.62-19.62-19.62-51.44,0-71.07L361.89,67.07
			c19.63-19.62,51.44-19.62,71.07,0c19.62,19.62,19.62,51.44,0,71.07L138.11,432.99C128.29,442.8,115.43,447.7,102.57,447.7z"/>
	</g>
	<g class="st6">
		<path class="st1" d="M397.43,443.95c-11.9,0-23.8-4.54-32.88-13.62L69.69,135.48c-18.16-18.16-18.16-47.6,0-65.76
			c18.16-18.16,47.6-18.16,65.76,0l294.85,294.85c18.16,18.16,18.16,47.6,0,65.76C421.23,439.41,409.33,443.95,397.43,443.95z"/>
		<path class="st1" d="M102.57,443.95c-11.9,0-23.8-4.54-32.88-13.62c-18.16-18.16-18.16-47.6,0-65.76L364.55,69.72
			c18.16-18.16,47.6-18.16,65.76,0c18.16,18.16,18.16,47.6,0,65.76L135.45,430.33C126.37,439.41,114.47,443.95,102.57,443.95z"/>
	</g>
	<g class="st7">
		<path class="st1" d="M397.43,440.2c-10.94,0-21.88-4.17-30.23-12.52L72.35,132.83c-16.69-16.69-16.69-43.76,0-60.46
			c16.69-16.7,43.76-16.7,60.46,0l294.85,294.85c16.69,16.69,16.69,43.76,0,60.46C419.31,436.03,408.37,440.2,397.43,440.2z"/>
		<path class="st1" d="M102.57,440.2c-10.94,0-21.88-4.17-30.23-12.52c-16.69-16.69-16.69-43.76,0-60.46L367.2,72.37
			c16.69-16.7,43.76-16.7,60.46,0c16.69,16.69,16.69,43.76,0,60.46L132.8,427.68C124.46,436.03,113.51,440.2,102.57,440.2z"/>
	</g>
	<g class="st7">
		<path class="st1" d="M397.43,436.45c-9.98,0-19.96-3.81-27.58-11.42L75,130.18c-15.23-15.23-15.23-39.92,0-55.15
			c15.23-15.23,39.92-15.23,55.15,0L425,369.88c15.23,15.23,15.23,39.92,0,55.15C417.39,432.65,407.41,436.45,397.43,436.45z"/>
		<path class="st1" d="M102.57,436.45c-9.98,0-19.96-3.81-27.58-11.42c-15.23-15.23-15.23-39.92,0-55.15L369.85,75.02
			c15.23-15.23,39.92-15.23,55.15,0c15.23,15.23,15.23,39.92,0,55.15L130.15,425.03C122.54,432.65,112.56,436.45,102.57,436.45z"/>
	</g>
	<g class="st8">
		<path class="st1" d="M397.43,432.7c-9.02,0-18.04-3.44-24.93-10.32L77.65,127.53c-13.77-13.77-13.77-36.08,0-49.85
			c13.77-13.77,36.09-13.77,49.85,0l294.85,294.85c13.77,13.77,13.77,36.08,0,49.85C415.47,429.26,406.45,432.7,397.43,432.7z"/>
		<path class="st1" d="M102.57,432.7c-9.02,0-18.04-3.44-24.93-10.32c-13.77-13.77-13.77-36.08,0-49.85L372.5,77.68
			c13.77-13.77,36.08-13.77,49.85,0c13.77,13.77,13.77,36.08,0,49.85L127.5,422.38C120.62,429.26,111.6,432.7,102.57,432.7z"/>
	</g>
	<g class="st8">
		<path class="st1" d="M397.43,428.95c-8.06,0-16.12-3.07-22.27-9.23L80.3,124.88c-12.3-12.3-12.3-32.25,0-44.55
			c12.3-12.3,32.25-12.3,44.55,0L419.7,375.18c12.3,12.3,12.3,32.25,0,44.55C413.55,425.88,405.49,428.95,397.43,428.95z"/>
		<path class="st1" d="M102.57,428.95c-8.06,0-16.12-3.07-22.27-9.23c-12.3-12.3-12.3-32.25,0-44.55L375.15,80.33
			c12.3-12.3,32.25-12.3,44.55,0c12.3,12.3,12.3,32.25,0,44.55L124.85,419.73C118.7,425.88,110.63,428.95,102.57,428.95z"/>
	</g>
	<g class="st9">
		<path class="st1" d="M397.43,425.2c-7.1,0-14.2-2.71-19.62-8.13L82.95,122.22c-10.84-10.84-10.84-28.41,0-39.24
			c10.84-10.84,28.41-10.84,39.24,0l294.85,294.85c10.84,10.84,10.84,28.41,0,39.24C411.63,422.49,404.53,425.2,397.43,425.2z"/>
		<path class="st1" d="M102.57,425.2c-7.1,0-14.2-2.71-19.62-8.13c-10.84-10.84-10.84-28.41,0-39.24L377.8,82.98
			c10.84-10.84,28.41-10.84,39.24,0c10.84,10.84,10.84,28.41,0,39.24L122.2,417.08C116.78,422.49,109.68,425.2,102.57,425.2z"/>
	</g>
	<g>
		<path class="st1" d="M397.43,421.45c-6.14,0-12.28-2.34-16.97-7.03L85.6,119.57c-9.37-9.37-9.37-24.57,0-33.94
			c9.37-9.37,24.57-9.37,33.94,0L414.4,380.48c9.37,9.37,9.37,24.57,0,33.94C409.71,419.11,403.57,421.45,397.43,421.45z"/>
		<path class="st1" d="M102.57,421.45c-6.14,0-12.28-2.34-16.97-7.03c-9.37-9.37-9.37-24.57,0-33.94L380.46,85.63
			c9.37-9.37,24.57-9.37,33.94,0c9.37,9.37,9.37,24.57,0,33.94L119.54,414.42C114.86,419.11,108.72,421.45,102.57,421.45z"/>
	</g>
	<g class="st10">
		<path class="st11" d="M397.43,417.7c-5.18,0-10.37-1.98-14.32-5.93L88.25,116.92c-7.91-7.91-7.91-20.73,0-28.64
			c7.91-7.91,20.73-7.91,28.64,0l294.85,294.85c7.91,7.91,7.91,20.73,0,28.64C407.79,415.73,402.61,417.7,397.43,417.7z"/>
		<path class="st11" d="M102.57,417.7c-5.18,0-10.37-1.98-14.32-5.93c-7.91-7.91-7.91-20.73,0-28.64L383.11,88.28
			c7.91-7.91,20.73-7.91,28.64,0c7.91,7.91,7.91,20.73,0,28.64L116.89,411.77C112.94,415.73,107.76,417.7,102.57,417.7z"/>
	</g>
	<g class="st12">
		<path class="st11" d="M397.43,413.95c-4.22,0-8.44-1.61-11.67-4.83L90.91,114.27c-6.44-6.44-6.44-16.89,0-23.33
			c6.45-6.44,16.89-6.44,23.33,0l294.85,294.85c6.44,6.44,6.44,16.89,0,23.34C405.87,412.34,401.65,413.95,397.43,413.95z"/>
		<path class="st11" d="M102.57,413.95c-4.22,0-8.44-1.61-11.67-4.83c-6.44-6.44-6.44-16.89,0-23.34L385.76,90.93
			c6.45-6.44,16.89-6.44,23.34,0c6.44,6.44,6.44,16.89,0,23.33L114.24,409.12C111.02,412.34,106.8,413.95,102.57,413.95z"/>
	</g>
	<g class="st12">
		<path class="st11" d="M397.43,410.2c-3.26,0-6.53-1.25-9.02-3.73L93.56,111.62c-4.98-4.98-4.98-13.05,0-18.03
			c4.98-4.98,13.05-4.98,18.03,0l294.85,294.85c4.98,4.98,4.98,13.05,0,18.03C403.95,408.96,400.69,410.2,397.43,410.2z"/>
		<path class="st11" d="M102.57,410.2c-3.26,0-6.53-1.25-9.02-3.73c-4.98-4.98-4.98-13.05,0-18.03L388.41,93.59
			c4.98-4.98,13.05-4.98,18.03,0c4.98,4.98,4.98,13.05,0,18.03L111.59,406.47C109.1,408.96,105.84,410.2,102.57,410.2z"/>
	</g>
	<g class="st12">
		<path class="st11" d="M397.43,406.45c-2.3,0-4.61-0.88-6.36-2.64L96.21,108.96c-3.52-3.51-3.52-9.21,0-12.73
			c3.51-3.52,9.21-3.52,12.73,0l294.85,294.85c3.52,3.51,3.52,9.21,0,12.73C402.03,405.57,399.73,406.45,397.43,406.45z"/>
		<path class="st11" d="M102.57,406.45c-2.3,0-4.61-0.88-6.36-2.64c-3.52-3.51-3.52-9.21,0-12.73L391.06,96.24
			c3.51-3.52,9.21-3.52,12.73,0c3.52,3.51,3.52,9.21,0,12.73L108.94,403.82C107.18,405.57,104.88,406.45,102.57,406.45z"/>
	</g>
	<g class="st13">
		<path class="st11" d="M397.43,400.45c-0.77,0-1.54-0.29-2.12-0.88L100.45,104.72c-1.17-1.17-1.17-3.07,0-4.24
			c1.17-1.17,3.07-1.17,4.24,0l294.85,294.85c1.17,1.17,1.17,3.07,0,4.24C398.96,400.16,398.19,400.45,397.43,400.45z"/>
		<path class="st11" d="M102.57,400.45c-0.77,0-1.54-0.29-2.12-0.88c-1.17-1.17-1.17-3.07,0-4.24l294.85-294.85
			c1.17-1.17,3.07-1.17,4.24,0c1.17,1.17,1.17,3.07,0,4.24L104.69,399.57C104.11,400.16,103.34,400.45,102.57,400.45z"/>
	</g>
</g>
</svg>
