<?xml version="1.0" encoding="utf-8"?>
<!-- Generator: Adobe Illustrator 24.1.1, SVG Export Plug-In . SVG Version: 6.00 Build 0)  -->
<svg version="1.1" xmlns="http://www.w3.org/2000/svg" xmlns:xlink="http://www.w3.org/1999/xlink" x="0px" y="0px"
	 viewBox="0 0 1800 1800" style="enable-background:new 0 0 1800 1800;" xml:space="preserve">
<style type="text/css">
	.st0{opacity:0.01;}
	.st1{fill:#FFBB00;}
	.st2{opacity:0.03;}
	.st3{opacity:0.05;}
	.st4{opacity:0.06;}
	.st5{opacity:0.08;}
	.st6{opacity:0.09;}
	.st7{opacity:0.1;}
	.st8{opacity:0.11;}
	.st9{opacity:0.12;}
	.st10{opacity:0.2;}
	.st11{fill:#FFFFFF;}
	.st12{opacity:0.4;}
	.st13{opacity:0.6;}
</style>
<g>
	<g class="st0">
		<path class="st1" d="M1713.01,1260H86.99c-38.11,0-69-30.89-69-69c0-38.11,30.89-69,69-69h1626.03c38.11,0,69,30.89,69,69
			C1782.01,1229.11,1751.12,1260,1713.01,1260z"/>
		<path class="st1" d="M1713.01,678H86.99c-38.11,0-69-30.89-69-69c0-38.11,30.89-69,69-69h1626.03c38.11,0,69,30.89,69,69
			C1782.01,647.1,1751.12,678,1713.01,678z"/>
		<path class="st1" d="M1191,1782.01c-38.11,0-69-30.89-69-69V86.99c0-38.11,30.89-69,69-69c38.11,0,69,30.89,69,69v1626.03
			C1260,1751.12,1229.11,1782.01,1191,1782.01z"/>
		<path class="st1" d="M609,1782.01c-38.11,0-69-30.89-69-69V86.99c0-38.11,30.89-69,69-69c38.11,0,69,30.89,69,69v1626.03
			C678,1751.12,647.1,1782.01,609,1782.01z"/>
	</g>
	<g class="st2">
		<path class="st1" d="M1713.01,1256.25H86.99c-36.04,0-65.25-29.21-65.25-65.25c0-36.04,29.21-65.25,65.25-65.25h1626.03
			c36.04,0,65.25,29.21,65.25,65.25C1778.26,1227.04,1749.05,1256.25,1713.01,1256.25z"/>
		<path class="st1" d="M1713.01,674.25H86.99c-36.04,0-65.25-29.21-65.25-65.25c0-36.04,29.21-65.25,65.25-65.25h1626.03
			c36.04,0,65.25,29.21,65.25,65.25C1778.26,645.03,1749.05,674.25,1713.01,674.25z"/>
		<path class="st1" d="M1191,1778.26c-36.04,0-65.25-29.21-65.25-65.25V86.99c0-36.04,29.21-65.25,65.25-65.25
			c36.04,0,65.25,29.21,65.25,65.25v1626.03C1256.25,1749.05,1227.04,1778.26,1191,1778.26z"/>
		<path class="st1" d="M609,1778.26c-36.04,0-65.25-29.21-65.25-65.25V86.99c0-36.04,29.21-65.25,65.25-65.25
			c36.04,0,65.25,29.21,65.25,65.25v1626.03C674.25,1749.05,645.03,1778.26,609,1778.26z"/>
	</g>
	<g class="st3">
		<path class="st1" d="M1713.01,1252.5H86.99c-33.97,0-61.5-27.53-61.5-61.5c0-33.97,27.53-61.5,61.5-61.5h1626.03
			c33.97,0,61.5,27.53,61.5,61.5C1774.51,1224.97,1746.98,1252.5,1713.01,1252.5z"/>
		<path class="st1" d="M1713.01,670.5H86.99c-33.97,0-61.5-27.53-61.5-61.5c0-33.97,27.53-61.5,61.5-61.5h1626.03
			c33.97,0,61.5,27.53,61.5,61.5C1774.51,642.96,1746.98,670.5,1713.01,670.5z"/>
		<path class="st1" d="M1191,1774.51c-33.97,0-61.5-27.53-61.5-61.5V86.99c0-33.97,27.53-61.5,61.5-61.5
			c33.97,0,61.5,27.53,61.5,61.5v1626.03C1252.5,1746.98,1224.97,1774.51,1191,1774.51z"/>
		<path class="st1" d="M609,1774.51c-33.97,0-61.5-27.53-61.5-61.5V86.99c0-33.97,27.53-61.5,61.5-61.5
			c33.97,0,61.5,27.53,61.5,61.5v1626.03C670.5,1746.98,642.96,1774.51,609,1774.51z"/>
	</g>
	<g class="st3">
		<path class="st1" d="M1713.01,1248.75H86.99c-31.89,0-57.75-25.86-57.75-57.75c0-31.89,25.86-57.75,57.75-57.75h1626.03
			c31.89,0,57.75,25.86,57.75,57.75C1770.76,1222.9,1744.91,1248.75,1713.01,1248.75z"/>
		<path class="st1" d="M1713.01,666.75H86.99c-31.89,0-57.75-25.86-57.75-57.75c0-31.89,25.86-57.75,57.75-57.75h1626.03
			c31.89,0,57.75,25.86,57.75,57.75C1770.76,640.89,1744.91,666.75,1713.01,666.75z"/>
		<path class="st1" d="M1191,1770.76c-31.89,0-57.75-25.86-57.75-57.75V86.99c0-31.89,25.86-57.75,57.75-57.75
			c31.89,0,57.75,25.86,57.75,57.75v1626.03C1248.75,1744.91,1222.9,1770.76,1191,1770.76z"/>
		<path class="st1" d="M609,1770.76c-31.89,0-57.75-25.86-57.75-57.75V86.99c0-31.89,25.86-57.75,57.75-57.75
			c31.89,0,57.75,25.86,57.75,57.75v1626.03C666.75,1744.91,640.89,1770.76,609,1770.76z"/>
	</g>
	<g class="st4">
		<path class="st1" d="M1713.01,1245H86.99c-29.82,0-54-24.18-54-54c0-29.82,24.18-54,54-54h1626.03c29.82,0,54,24.18,54,54
			C1767.01,1220.83,1742.84,1245,1713.01,1245z"/>
		<path class="st1" d="M1713.01,663H86.99c-29.82,0-54-24.18-54-54c0-29.82,24.18-54,54-54h1626.03c29.82,0,54,24.18,54,54
			C1767.01,638.82,1742.84,663,1713.01,663z"/>
		<path class="st1" d="M1191,1767.01c-29.82,0-54-24.18-54-54V86.99c0-29.82,24.18-54,54-54c29.82,0,54,24.18,54,54v1626.03
			C1245,1742.84,1220.83,1767.01,1191,1767.01z"/>
		<path class="st1" d="M609,1767.01c-29.82,0-54-24.18-54-54V86.99c0-29.82,24.18-54,54-54c29.82,0,54,24.18,54,54v1626.03
			C663,1742.84,638.82,1767.01,609,1767.01z"/>
	</g>
	<g class="st5">
		<path class="st1" d="M1713.01,1241.25H86.99c-27.75,0-50.25-22.5-50.25-50.25c0-27.75,22.5-50.25,50.25-50.25h1626.03
			c27.75,0,50.25,22.5,50.25,50.25C1763.26,1218.76,1740.77,1241.25,1713.01,1241.25z"/>
		<path class="st1" d="M1713.01,659.25H86.99c-27.75,0-50.25-22.5-50.25-50.25c0-27.75,22.5-50.25,50.25-50.25h1626.03
			c27.75,0,50.25,22.5,50.25,50.25C1763.26,636.75,1740.77,659.25,1713.01,659.25z"/>
		<path class="st1" d="M1191,1763.26c-27.75,0-50.25-22.5-50.25-50.25V86.99c0-27.75,22.5-50.25,50.25-50.25
			c27.75,0,50.25,22.5,50.25,50.25v1626.03C1241.25,1740.77,1218.76,1763.26,1191,1763.26z"/>
		<path class="st1" d="M609,1763.26c-27.75,0-50.25-22.5-50.25-50.25V86.99c0-27.75,22.5-50.25,50.25-50.25
			c27.75,0,50.25,22.5,50.25,50.25v1626.03C659.25,1740.77,636.75,1763.26,609,1763.26z"/>
	</g>
	<g class="st6">
		<path class="st1" d="M1713.01,1237.5H86.99c-25.68,0-46.5-20.82-46.5-46.5c0-25.68,20.82-46.5,46.5-46.5h1626.03
			c25.68,0,46.5,20.82,46.5,46.5C1759.51,1216.69,1738.7,1237.5,1713.01,1237.5z"/>
		<path class="st1" d="M1713.01,655.5H86.99c-25.68,0-46.5-20.82-46.5-46.5c0-25.68,20.82-46.5,46.5-46.5h1626.03
			c25.68,0,46.5,20.82,46.5,46.5C1759.51,634.68,1738.7,655.5,1713.01,655.5z"/>
		<path class="st1" d="M1191,1759.51c-25.68,0-46.5-20.82-46.5-46.5V86.99c0-25.68,20.82-46.5,46.5-46.5
			c25.68,0,46.5,20.82,46.5,46.5v1626.03C1237.5,1738.7,1216.69,1759.51,1191,1759.51z"/>
		<path class="st1" d="M609,1759.51c-25.68,0-46.5-20.82-46.5-46.5V86.99c0-25.68,20.82-46.5,46.5-46.5s46.5,20.82,46.5,46.5
			v1626.03C655.5,1738.7,634.68,1759.51,609,1759.51z"/>
	</g>
	<g class="st7">
		<path class="st1" d="M1713.01,1233.75H86.99c-23.61,0-42.75-19.14-42.75-42.75c0-23.61,19.14-42.75,42.75-42.75h1626.03
			c23.61,0,42.75,19.14,42.75,42.75C1755.76,1214.61,1736.63,1233.75,1713.01,1233.75z"/>
		<path class="st1" d="M1713.01,651.75H86.99c-23.61,0-42.75-19.14-42.75-42.75c0-23.61,19.14-42.75,42.75-42.75h1626.03
			c23.61,0,42.75,19.14,42.75,42.75C1755.76,632.61,1736.63,651.75,1713.01,651.75z"/>
		<path class="st1" d="M1191,1755.76c-23.61,0-42.75-19.14-42.75-42.75V86.99c0-23.61,19.14-42.75,42.75-42.75
			c23.61,0,42.75,19.14,42.75,42.75v1626.03C1233.75,1736.63,1214.61,1755.76,1191,1755.76z"/>
		<path class="st1" d="M609,1755.76c-23.61,0-42.75-19.14-42.75-42.75V86.99c0-23.61,19.14-42.75,42.75-42.75
			c23.61,0,42.75,19.14,42.75,42.75v1626.03C651.75,1736.63,632.61,1755.76,609,1755.76z"/>
	</g>
	<g class="st7">
		<path class="st1" d="M1713.01,1230H86.99c-21.54,0-39-17.46-39-39c0-21.54,17.46-39,39-39h1626.03c21.54,0,39,17.46,39,39
			C1752.01,1212.54,1734.55,1230,1713.01,1230z"/>
		<path class="st1" d="M1713.01,648H86.99c-21.54,0-39-17.46-39-39c0-21.54,17.46-39,39-39h1626.03c21.54,0,39,17.46,39,39
			C1752.01,630.53,1734.55,648,1713.01,648z"/>
		<path class="st1" d="M1191,1752.01c-21.54,0-39-17.46-39-39V86.99c0-21.54,17.46-39,39-39c21.54,0,39,17.46,39,39v1626.03
			C1230,1734.55,1212.54,1752.01,1191,1752.01z"/>
		<path class="st1" d="M609,1752.01c-21.54,0-39-17.46-39-39V86.99c0-21.54,17.46-39,39-39c21.54,0,39,17.46,39,39v1626.03
			C648,1734.55,630.53,1752.01,609,1752.01z"/>
	</g>
	<g class="st8">
		<path class="st1" d="M1713.01,1226.25H86.99c-19.47,0-35.25-15.78-35.25-35.25c0-19.47,15.78-35.25,35.25-35.25h1626.03
			c19.47,0,35.25,15.78,35.25,35.25C1748.26,1210.47,1732.48,1226.25,1713.01,1226.25z"/>
		<path class="st1" d="M1713.01,644.25H86.99c-19.47,0-35.25-15.78-35.25-35.25c0-19.47,15.78-35.25,35.25-35.25h1626.03
			c19.47,0,35.25,15.78,35.25,35.25C1748.26,628.46,1732.48,644.25,1713.01,644.25z"/>
		<path class="st1" d="M1191,1748.26c-19.47,0-35.25-15.78-35.25-35.25V86.99c0-19.47,15.78-35.25,35.25-35.25
			c19.47,0,35.25,15.78,35.25,35.25v1626.03C1226.25,1732.48,1210.47,1748.26,1191,1748.26z"/>
		<path class="st1" d="M609,1748.26c-19.47,0-35.25-15.78-35.25-35.25V86.99c0-19.47,15.78-35.25,35.25-35.25
			c19.47,0,35.25,15.78,35.25,35.25v1626.03C644.25,1732.48,628.46,1748.26,609,1748.26z"/>
	</g>
	<g class="st8">
		<path class="st1" d="M1713.01,1222.5H86.99c-17.4,0-31.5-14.1-31.5-31.5c0-17.4,14.1-31.5,31.5-31.5h1626.03
			c17.4,0,31.5,14.1,31.5,31.5C1744.51,1208.4,1730.41,1222.5,1713.01,1222.5z"/>
		<path class="st1" d="M1713.01,640.5H86.99c-17.4,0-31.5-14.1-31.5-31.5c0-17.4,14.1-31.5,31.5-31.5h1626.03
			c17.4,0,31.5,14.1,31.5,31.5C1744.51,626.39,1730.41,640.5,1713.01,640.5z"/>
		<path class="st1" d="M1191,1744.51c-17.4,0-31.5-14.1-31.5-31.5V86.99c0-17.4,14.1-31.5,31.5-31.5c17.4,0,31.5,14.1,31.5,31.5
			v1626.03C1222.5,1730.41,1208.4,1744.51,1191,1744.51z"/>
		<path class="st1" d="M609,1744.51c-17.4,0-31.5-14.1-31.5-31.5V86.99c0-17.4,14.1-31.5,31.5-31.5c17.4,0,31.5,14.1,31.5,31.5
			v1626.03C640.5,1730.41,626.39,1744.51,609,1744.51z"/>
	</g>
	<g class="st9">
		<path class="st1" d="M1713.01,1218.75H86.99c-15.33,0-27.75-12.42-27.75-27.75c0-15.33,12.42-27.75,27.75-27.75h1626.03
			c15.33,0,27.75,12.42,27.75,27.75C1740.76,1206.33,1728.34,1218.75,1713.01,1218.75z"/>
		<path class="st1" d="M1713.01,636.75H86.99c-15.33,0-27.75-12.42-27.75-27.75c0-15.33,12.42-27.75,27.75-27.75h1626.03
			c15.33,0,27.75,12.42,27.75,27.75C1740.76,624.32,1728.34,636.75,1713.01,636.75z"/>
		<path class="st1" d="M1191,1740.76c-15.33,0-27.75-12.42-27.75-27.75V86.99c0-15.33,12.42-27.75,27.75-27.75
			c15.33,0,27.75,12.42,27.75,27.75v1626.03C1218.75,1728.34,1206.33,1740.76,1191,1740.76z"/>
		<path class="st1" d="M609,1740.76c-15.33,0-27.75-12.42-27.75-27.75V86.99c0-15.33,12.42-27.75,27.75-27.75
			s27.75,12.42,27.75,27.75v1626.03C636.75,1728.34,624.32,1740.76,609,1740.76z"/>
	</g>
	<g>
		<path class="st1" d="M1713.01,1215H86.99c-13.26,0-24-10.74-24-24c0-13.26,10.74-24,24-24h1626.03c13.26,0,24,10.74,24,24
			C1737.01,1204.26,1726.27,1215,1713.01,1215z"/>
		<path class="st1" d="M1713.01,633H86.99c-13.26,0-24-10.74-24-24c0-13.26,10.74-24,24-24h1626.03c13.26,0,24,10.74,24,24
			C1737.01,622.25,1726.27,633,1713.01,633z"/>
		<path class="st1" d="M1191,1737.01c-13.26,0-24-10.74-24-24V86.99c0-13.26,10.74-24,24-24c13.26,0,24,10.74,24,24v1626.03
			C1215,1726.27,1204.26,1737.01,1191,1737.01z"/>
		<path class="st1" d="M609,1737.01c-13.26,0-24-10.74-24-24V86.99c0-13.26,10.74-24,24-24c13.26,0,24,10.74,24,24v1626.03
			C633,1726.27,622.25,1737.01,609,1737.01z"/>
	</g>
	<g class="st10">
		<path class="st11" d="M1713.01,1211.25H86.99c-11.18,0-20.25-9.07-20.25-20.25c0-11.18,9.07-20.25,20.25-20.25h1626.03
			c11.18,0,20.25,9.07,20.25,20.25C1733.26,1202.19,1724.2,1211.25,1713.01,1211.25z"/>
		<path class="st11" d="M1713.01,629.25H86.99c-11.18,0-20.25-9.07-20.25-20.25c0-11.18,9.07-20.25,20.25-20.25h1626.03
			c11.18,0,20.25,9.07,20.25,20.25C1733.26,620.18,1724.2,629.25,1713.01,629.25z"/>
		<path class="st11" d="M1191,1733.26c-11.18,0-20.25-9.07-20.25-20.25V86.99c0-11.18,9.07-20.25,20.25-20.25
			c11.18,0,20.25,9.07,20.25,20.25v1626.03C1211.25,1724.2,1202.19,1733.26,1191,1733.26z"/>
		<path class="st11" d="M609,1733.26c-11.18,0-20.25-9.07-20.25-20.25V86.99c0-11.18,9.07-20.25,20.25-20.25
			c11.18,0,20.25,9.07,20.25,20.25v1626.03C629.25,1724.2,620.18,1733.26,609,1733.26z"/>
	</g>
	<g class="st12">
		<path class="st11" d="M1713.01,1207.5H86.99c-9.11,0-16.5-7.39-16.5-16.5c0-9.11,7.39-16.5,16.5-16.5h1626.03
			c9.11,0,16.5,7.39,16.5,16.5C1729.51,1200.12,1722.13,1207.5,1713.01,1207.5z"/>
		<path class="st11" d="M1713.01,625.5H86.99c-9.11,0-16.5-7.39-16.5-16.5c0-9.11,7.39-16.5,16.5-16.5h1626.03
			c9.11,0,16.5,7.39,16.5,16.5C1729.51,618.11,1722.13,625.5,1713.01,625.5z"/>
		<path class="st11" d="M1191,1729.51c-9.11,0-16.5-7.39-16.5-16.5V86.99c0-9.11,7.39-16.5,16.5-16.5c9.11,0,16.5,7.39,16.5,16.5
			v1626.03C1207.5,1722.13,1200.12,1729.51,1191,1729.51z"/>
		<path class="st11" d="M609,1729.51c-9.11,0-16.5-7.39-16.5-16.5V86.99c0-9.11,7.39-16.5,16.5-16.5c9.11,0,16.5,7.39,16.5,16.5
			v1626.03C625.5,1722.13,618.11,1729.51,609,1729.51z"/>
	</g>
	<g class="st12">
		<path class="st11" d="M1713.01,1203.75H86.99c-7.04,0-12.75-5.71-12.75-12.75c0-7.04,5.71-12.75,12.75-12.75h1626.03
			c7.04,0,12.75,5.71,12.75,12.75C1725.76,1198.05,1720.06,1203.75,1713.01,1203.75z"/>
		<path class="st11" d="M1713.01,621.75H86.99c-7.04,0-12.75-5.71-12.75-12.75c0-7.04,5.71-12.75,12.75-12.75h1626.03
			c7.04,0,12.75,5.71,12.75,12.75C1725.76,616.04,1720.06,621.75,1713.01,621.75z"/>
		<path class="st11" d="M1191,1725.76c-7.04,0-12.75-5.71-12.75-12.75V86.99c0-7.04,5.71-12.75,12.75-12.75
			c7.04,0,12.75,5.71,12.75,12.75v1626.03C1203.75,1720.06,1198.05,1725.76,1191,1725.76z"/>
		<path class="st11" d="M609,1725.76c-7.04,0-12.75-5.71-12.75-12.75V86.99c0-7.04,5.71-12.75,12.75-12.75
			c7.04,0,12.75,5.71,12.75,12.75v1626.03C621.75,1720.06,616.04,1725.76,609,1725.76z"/>
	</g>
	<g class="st12">
		<path class="st11" d="M1713.01,1200H86.99c-4.97,0-9-4.03-9-9c0-4.97,4.03-9,9-9h1626.03c4.97,0,9,4.03,9,9
			C1722.01,1195.97,1717.98,1200,1713.01,1200z"/>
		<path class="st11" d="M1713.01,618H86.99c-4.97,0-9-4.03-9-9c0-4.97,4.03-9,9-9h1626.03c4.97,0,9,4.03,9,9
			C1722.01,613.97,1717.98,618,1713.01,618z"/>
		<path class="st11" d="M1191,1722.01c-4.97,0-9-4.03-9-9V86.99c0-4.97,4.03-9,9-9c4.97,0,9,4.03,9,9v1626.03
			C1200,1717.98,1195.97,1722.01,1191,1722.01z"/>
		<path class="st11" d="M609,1722.01c-4.97,0-9-4.03-9-9V86.99c0-4.97,4.03-9,9-9c4.97,0,9,4.03,9,9v1626.03
			C618,1717.98,613.97,1722.01,609,1722.01z"/>
	</g>
	<g class="st13">
		<path class="st11" d="M1713.01,1194H86.99c-1.66,0-3-1.34-3-3c0-1.66,1.34-3,3-3h1626.03c1.66,0,3,1.34,3,3
			C1716.01,1192.66,1714.67,1194,1713.01,1194z"/>
		<path class="st11" d="M1713.01,612H86.99c-1.66,0-3-1.34-3-3c0-1.66,1.34-3,3-3h1626.03c1.66,0,3,1.34,3,3
			C1716.01,610.65,1714.67,612,1713.01,612z"/>
		<path class="st11" d="M1191,1716.01c-1.66,0-3-1.34-3-3V86.99c0-1.66,1.34-3,3-3c1.66,0,3,1.34,3,3v1626.03
			C1194,1714.67,1192.66,1716.01,1191,1716.01z"/>
		<path class="st11" d="M609,1716.01c-1.66,0-3-1.34-3-3V86.99c0-1.66,1.34-3,3-3c1.66,0,3,1.34,3,3v1626.03
			C612,1714.67,610.65,1716.01,609,1716.01z"/>
	</g>
</g>
</svg>
