<?xml version="1.0" encoding="utf-8"?>
<!-- Generator: Adobe Illustrator 24.1.1, SVG Export Plug-In . SVG Version: 6.00 Build 0)  -->
<svg version="1.1" xmlns="http://www.w3.org/2000/svg" xmlns:xlink="http://www.w3.org/1999/xlink" x="0px" y="0px"
	 viewBox="0 0 500 500" style="enable-background:new 0 0 500 500;" xml:space="preserve">
<style type="text/css">
	.st0{opacity:0.01;fill:#FF00AA;}
	.st1{opacity:0.03;fill:#FF00AA;}
	.st2{opacity:0.05;fill:#FF00AA;}
	.st3{opacity:0.06;fill:#FF00AA;}
	.st4{opacity:0.08;fill:#FF00AA;}
	.st5{opacity:0.09;fill:#FF00AA;}
	.st6{opacity:0.1;fill:#FF00AA;}
	.st7{opacity:0.11;fill:#FF00AA;}
	.st8{opacity:0.12;fill:#FF00AA;}
	.st9{fill:#FF00AA;}
	.st10{opacity:0.2;fill:#FFFFFF;}
	.st11{opacity:0.4;fill:#FFFFFF;}
	.st12{opacity:0.6;fill:#FFFFFF;}
</style>
<g>
	<path class="st0" d="M248.78,465.11c-11.93,0-23.86-3.09-34.55-9.27c-4.89-2.83-49.08-28.86-93.68-71.34
		c-27.84-26.52-50.29-54.2-66.72-82.27c-22.79-38.93-34.23-78.83-34-118.58c0.23-39.96,16.01-77.43,44.42-105.52
		c28.42-28.09,66.11-43.49,106.02-43.2c28.44,0.16,56.32,8.22,80.33,22.08c23.98-13.43,51.7-21.15,79.93-21.15c0.3,0,0.59,0,0.89,0
		c39.96,0.23,77.43,16.01,105.52,44.42c28.09,28.42,43.43,66.07,43.2,106.03c-0.23,39.81-12.2,79.65-35.58,118.41
		c-16.82,27.9-39.67,55.35-67.91,81.58c-45.99,42.72-92.15,68.86-94.09,69.95C272.08,462.17,260.43,465.11,248.78,465.11z
		 M169.42,172.94c-3.93,0-6.59,1.82-8.14,3.35c-1.56,1.54-3.42,4.21-3.44,8.17c-0.22,38.38,35.29,78.35,56.47,98.76
		c12,11.56,24.18,21.62,34.91,29.78c10.85-8.07,23.19-18.04,35.37-29.51c21.41-20.18,57.35-59.73,57.57-97.96
		c0.02-3.97-1.81-6.65-3.34-8.21c-1.54-1.56-4.21-3.42-8.18-3.44c-0.03,0-0.07,0-0.1,0c-7.41,0-15.61,4.82-17.8,7.55
		c-11.22,24.54-35.74,40.3-62.74,40.3c-0.14,0-0.27,0-0.4,0c-27.2-0.16-51.75-16.28-62.72-41.12c-2.06-2.72-10.07-7.61-17.39-7.65
		C169.51,172.96,169.44,172.94,169.42,172.94z M187.03,180.79h0.02H187.03z M186.63,180.01c0,0,0,0.01,0.01,0.01
		C186.63,180.02,186.63,180.02,186.63,180.01z"/>
	<path class="st1" d="M248.78,461.36c-11.29,0-22.57-2.93-32.67-8.77c-4.85-2.81-48.69-28.63-92.97-70.81
		c-27.58-26.27-49.81-53.68-66.07-81.45C34.63,262,23.36,222.75,23.59,183.68c0.23-38.95,15.61-75.49,43.31-102.87
		c27.7-27.38,64.4-42.3,103.37-42.12c28.52,0.16,56.47,8.45,80.32,22.63c23.83-13.77,51.63-21.7,79.96-21.7c0.29,0,0.58,0,0.87,0
		c38.95,0.23,75.49,15.61,102.87,43.31c27.39,27.7,42.34,64.41,42.12,103.37c-0.23,39.13-12.01,78.32-35.04,116.5
		c-16.64,27.6-39.27,54.77-67.26,80.77c-45.67,42.42-91.45,68.35-93.38,69.43C270.81,458.58,259.79,461.36,248.78,461.36z
		 M169.41,169.19c-5.2,0-8.72,2.4-10.77,4.43c-2.06,2.04-4.52,5.57-4.55,10.82c-0.29,50.1,54.27,102.53,95.04,133.3
		c11.47-8.42,24.79-19.04,37.93-31.42c48.43-45.61,58.74-79.97,58.86-100.77c0.03-5.25-2.39-8.81-4.43-10.87
		c-2.04-2.06-5.57-4.52-10.82-4.55c-0.04,0-0.08,0-0.12,0c-9.26,0-18.9,6.07-21.04,9.36c-10.53,23.42-33.83,38.48-59.5,38.48
		c-0.13,0-0.25,0-0.38,0c-25.85-0.15-49.17-15.54-59.46-39.24c-1.99-3.29-11.44-9.49-20.65-9.54h0
		C169.48,169.19,169.45,169.19,169.41,169.19z M309.44,179.59L309.44,179.59C309.44,179.59,309.44,179.59,309.44,179.59z
		 M190.21,178.81h0.02H190.21z"/>
	<path class="st2" d="M248.78,457.61c-10.64,0-21.27-2.76-30.79-8.26c-4.81-2.78-48.29-28.4-92.26-70.28
		c-27.33-26.03-49.34-53.16-65.42-80.63c-22.1-37.76-33.19-76.36-32.97-114.75c0.22-37.95,15.21-73.55,42.2-100.23
		c26.79-26.48,62.23-41.04,99.86-41.04c0.28,0,0.56,0,0.85,0c28.62,0.16,56.63,8.69,80.31,23.23
		c23.92-14.26,52.08-22.41,80.84-22.29c37.95,0.22,73.55,15.21,100.23,42.19c26.68,26.99,41.25,62.76,41.03,100.71
		c-0.22,38.44-11.83,76.99-34.5,114.58c-16.46,27.3-38.87,54.2-66.6,79.96c-45.34,42.12-90.75,67.83-92.66,68.9
		C269.55,454.99,259.16,457.61,248.78,457.61z M169.41,165.44c-6.47,0-10.86,2.99-13.4,5.51c-2.57,2.54-5.63,6.93-5.67,13.46
		c-0.3,52.48,57.24,107.01,98.84,138.02c41.92-30.54,100.18-84.49,100.49-136.87c0.04-6.53-2.98-10.96-5.51-13.53
		c-2.54-2.56-6.93-5.63-13.46-5.67c-0.05,0-0.09,0-0.14,0c-10.92,0-22.33,7.36-24.38,11.38c-9.88,22.21-31.89,36.49-56.18,36.49
		c-0.12,0-0.24,0-0.36,0c-24.43-0.14-46.45-14.76-56.11-37.2c-1.9-4.03-13.08-11.54-23.98-11.61h0
		C169.49,165.44,169.45,165.44,169.41,165.44z"/>
	<path class="st2" d="M248.78,453.86c-9.99,0-19.97-2.59-28.91-7.76c-4.77-2.76-47.9-28.17-91.55-69.75
		c-27.08-25.79-48.87-52.64-64.77-79.81c-21.75-37.17-32.67-75.13-32.46-112.83c0.21-36.95,14.8-71.61,41.08-97.58
		c26.28-25.97,61.08-40.13,98.05-39.95c28.72,0.17,56.8,8.94,80.31,23.85c23.74-14.64,52.09-23.12,80.84-22.92
		c36.95,0.21,71.61,14.8,97.58,41.08c25.98,26.28,40.16,61.1,39.95,98.05c-0.22,37.76-11.64,75.67-33.96,112.67
		c-16.28,27-38.47,53.63-65.94,79.15c-45.02,41.82-90.05,67.32-91.95,68.38C268.28,451.4,258.52,453.86,248.78,453.86z
		 M169.42,161.69c-8.15,0-13.55,4.13-16.04,6.59c-2.51,2.48-6.73,7.88-6.78,16.11c-0.32,54.88,60.22,111.48,102.56,142.68
		c42.67-30.72,103.95-86.71,104.26-141.48c0.05-8.23-4.11-13.67-6.59-16.18c-2.48-2.51-7.88-6.73-16.11-6.78c-0.05,0-0.11,0-0.16,0
		c-12.79,0-25.65,8.77-27.78,13.56c-9.27,20.86-29.96,34.29-52.77,34.29c-0.11,0-0.22,0-0.34,0c-22.94-0.13-43.63-13.83-52.7-34.9
		c-2.33-5.41-15.15-13.8-27.4-13.87c0,0,0,0,0,0C169.51,161.69,169.46,161.69,169.42,161.69z"/>
	<path class="st3" d="M248.78,450.11c-9.34,0-18.68-2.42-27.04-7.25c-4.73-2.74-47.5-27.94-90.84-69.22
		c-26.82-25.55-48.4-52.12-64.12-78.98c-21.41-36.58-32.16-73.89-31.94-110.91C35.27,109.8,95.57,49.94,169.41,49.94
		c0.27,0,0.52,0,0.79,0c28.83,0.17,56.99,9.22,80.3,24.52c23.33-14.89,51.38-23.6,80.04-23.6c0.27,0,0.54,0,0.82,0
		c35.95,0.21,69.67,14.4,94.94,39.97c25.27,25.57,39.08,59.44,38.87,95.39c-0.21,37.07-11.46,74.34-33.42,110.75
		c-16.1,26.7-38.06,53.06-65.28,78.34c-44.7,41.52-89.35,66.81-91.23,67.86C267.01,447.81,257.89,450.11,248.78,450.11z
		 M169.41,157.94c-9.49,0-15.77,4.8-18.68,7.68c-2.92,2.89-7.84,9.17-7.9,18.75c-0.24,41.94,33.32,83.02,61.52,110.09
		c15.81,15.18,31.88,27.83,44.76,37.14c13.02-9.2,29.28-21.72,45.32-36.79c28.48-26.75,62.48-67.41,62.72-109.2
		c0.05-9.58-4.79-15.92-7.68-18.84c-2.89-2.92-9.17-7.84-18.76-7.9c-0.06,0-0.12,0-0.18,0c-14.04,0-28.37,9.4-31.21,15.78
		c-8.67,19.51-28.02,32.06-49.34,32.06c-0.11,0-0.21,0-0.32,0c-21.45-0.12-40.79-12.93-49.28-32.64
		c-2.74-6.37-16.44-16.06-30.83-16.14C169.56,157.94,169.47,157.94,169.41,157.94z"/>
	<path class="st4" d="M248.78,446.36c-8.69,0-17.38-2.25-25.16-6.75c-4.69-2.71-47.11-27.7-90.13-68.68
		c-26.57-25.31-47.92-51.61-63.47-78.16c-21.07-35.99-31.64-72.66-31.43-109c0.2-34.95,14-67.72,38.86-92.29
		c24.67-24.39,57.3-37.79,91.96-37.79c0.26,0,0.52,0,0.78,0c28.95,0.17,57.21,9.52,80.29,25.24c23.34-15.45,51.82-24.5,80.86-24.31
		c34.95,0.2,67.72,14,92.29,38.85c24.57,24.85,37.99,57.79,37.78,92.73c-0.21,36.39-11.27,73.01-32.88,108.84
		c-15.92,26.4-37.66,52.48-64.62,77.53c-44.38,41.22-88.65,66.29-90.52,67.34C265.75,444.22,257.26,446.36,248.78,446.36z
		 M169.42,154.19c-8.04,0-15.6,3.11-21.32,8.76c-5.76,5.7-8.96,13.29-9.01,21.4c-0.25,43.31,34.01,85.32,62.79,112.93
		c16.82,16.13,33.9,29.42,47.21,38.92c13.45-9.39,30.75-22.54,47.81-38.55c29.06-27.28,63.76-68.86,64.01-112.01
		c0.05-8.1-3.06-15.74-8.76-21.5c-5.7-5.76-13.3-8.96-21.4-9.01c-0.07,0-0.13,0-0.2,0c-15.01,0-30.92,9.65-34.63,18.01
		c-8.07,18.15-26.07,29.84-45.92,29.84c-0.1,0-0.19,0-0.29,0c-19.96-0.12-37.96-12.04-45.86-30.37
		c-3.64-8.44-19.39-18.32-34.25-18.41c0,0,0,0,0,0C169.54,154.19,169.48,154.19,169.42,154.19z"/>
	<path class="st5" d="M248.78,442.61c-8.04,0-16.08-2.08-23.28-6.25c-4.66-2.69-46.71-27.47-89.42-68.15
		c-26.31-25.07-47.45-51.09-62.82-77.34c-20.72-35.4-31.12-71.43-30.92-107.08c0.2-33.94,13.6-65.78,37.74-89.65
		c24.14-23.86,56.09-36.91,90.08-36.7c29.08,0.17,57.44,9.84,80.29,26.02c22.89-15.77,51.16-25.09,80.09-25.09c0.26,0,0.51,0,0.78,0
		c33.95,0.2,65.78,13.6,89.65,37.74c23.87,24.14,36.9,56.13,36.7,90.08c-0.21,35.7-11.09,71.68-32.34,106.92
		c-15.74,26.1-37.26,51.91-63.96,76.72c-44.05,40.92-87.95,65.78-89.8,66.82C264.48,440.63,256.63,442.61,248.78,442.61z
		 M169.42,150.44c-9.03,0-17.53,3.49-23.96,9.84c-6.47,6.4-10.07,14.94-10.12,24.04c-0.26,44.69,34.7,87.63,64.07,115.77
		c17.85,17.11,35.98,31.03,49.66,40.68c13.83-9.53,32.19-23.32,50.29-40.3c29.65-27.81,65.04-70.3,65.3-114.83
		c0.05-9.1-3.44-17.68-9.84-24.16c-6.4-6.47-14.94-10.07-24.05-10.12c-16.78-0.06-34,10.6-38.28,20.24
		c-7.5,16.88-24.36,27.73-42.76,27.61c-18.47-0.11-35.13-11.14-42.44-28.1c-4.17-9.68-21.17-20.58-37.67-20.67h0
		C169.55,150.44,169.49,150.44,169.42,150.44z"/>
	<path class="st6" d="M248.78,438.86c-7.4,0-14.79-1.91-21.4-5.74c-1.84-1.06-45.59-26.55-88.71-67.62
		c-61.78-58.85-92.93-119.98-92.57-181.69c0.19-32.94,13.2-63.84,36.63-87c23.26-22.99,54.01-35.62,86.69-35.62
		c0.24,0,0.49,0,0.73,0c29.28,0.17,57.8,10.22,80.38,26.92c3.48-2.47,7.11-4.81,10.91-7.01c21.35-12.38,46.19-19.08,69.87-18.98
		c32.95,0.19,63.84,13.2,87,36.63c23.16,23.43,35.81,54.48,35.62,87.42c-0.36,61.75-32.36,122.62-95.11,180.92
		c-43.73,40.62-87.25,65.27-89.09,66.3C263.21,437.04,255.99,438.86,248.78,438.86z M169.42,146.69c-10.02,0-19.46,3.87-26.59,10.93
		c-7.19,7.1-11.18,16.58-11.24,26.69c-0.27,46.08,35.39,89.94,65.35,118.62c18.91,18.1,38.11,32.66,52.1,42.41
		c14.14-9.63,33.59-24.05,52.77-42.02c30.23-28.33,66.33-71.74,66.59-117.64c0.06-10.11-3.82-19.63-10.93-26.82
		c-7.1-7.19-16.58-11.18-26.69-11.24c-0.08,0-0.17,0-0.25,0c-18.57,0-36.74,11.8-41.48,22.46c-6.87,15.44-22.18,25.38-39.06,25.38
		c-0.08,0-0.17,0-0.25,0c-16.98-0.1-32.3-10.24-39.01-25.84c-4.64-10.76-22.65-22.83-41.09-22.94h0
		C169.57,146.69,169.49,146.69,169.42,146.69z"/>
	<path class="st6" d="M248.78,435.11c-6.75,0-13.49-1.75-19.53-5.24c-1.83-1.06-45.2-26.32-88-67.09
		c-61-58.11-91.76-118.32-91.41-178.95c0.19-31.94,12.8-61.9,35.52-84.35c22.55-22.29,52.37-34.54,84.05-34.54c0.24,0,0.47,0,0.71,0
		c29.51,0.17,58.22,10.65,80.51,27.93c22.49-16.77,51.17-27,79.94-27c0.24,0,0.46,0,0.7,0c31.94,0.19,61.9,12.8,84.36,35.51
		c22.46,22.72,34.72,52.82,34.54,84.76c-0.35,60.68-31.95,120.63-93.91,178.19c-43.41,40.32-86.56,64.75-88.37,65.78
		C261.95,433.45,255.36,435.11,248.78,435.11z M169.42,142.94c-11.02,0-21.39,4.26-29.23,12.01c-7.9,7.81-12.29,18.23-12.35,29.33
		c-0.28,47.46,36.09,92.26,66.64,121.49c20,19.13,40.3,34.31,54.54,44.12c14.39-9.68,34.96-24.73,55.25-43.73
		c30.82-28.86,67.62-73.19,67.89-120.46c0.06-11.11-4.2-21.57-12.01-29.47c-7.81-7.9-18.23-12.28-29.34-12.35c-0.08,0-0.17,0-0.25,0
		c-18.12,0-39.07,11.49-44.93,24.69c-6.26,14.09-20.23,23.16-35.64,23.16c-0.08,0-0.15,0-0.23,0c-15.49-0.09-29.46-9.34-35.59-23.57
		c-5.84-13.56-26.23-25.1-44.52-25.2c0,0,0,0,0,0C169.58,142.94,169.5,142.94,169.42,142.94z"/>
	<path class="st7" d="M248.78,431.36c-6.1,0-12.19-1.58-17.65-4.73c-1.81-1.05-44.81-26.09-87.29-66.56
		C83.61,302.7,53.25,243.41,53.59,183.85c0.37-63.64,52.27-115.16,115.82-115.16c0.23,0,0.45,0,0.68,0
		c22.4,0.13,45.75,6.8,65.75,18.78c5.16,3.1,10.05,6.52,14.62,10.21c22.18-17.37,51.08-28.06,80.1-28.06c0.23,0,0.45,0,0.68,0
		c30.94,0.18,59.96,12.4,81.71,34.4c21.75,22,33.63,51.16,33.45,82.1c-0.35,59.6-31.54,118.64-92.71,175.46
		c-43.08,40.02-85.86,64.24-87.66,65.25C260.68,429.86,254.73,431.36,248.78,431.36z M169.42,139.19
		c-12.01,0-23.31,4.64-31.86,13.09c-8.61,8.51-13.39,19.87-13.46,31.98c-0.16,26.97,11.51,70.44,67.97,124.38
		c21.12,20.17,42.54,35.98,56.93,45.77c14.55-9.68,36.29-25.36,57.73-45.42c56.9-53.24,69.03-96.42,69.18-123.28
		c0.07-12.11-4.58-23.52-13.09-32.13c-8.51-8.61-19.87-13.39-31.98-13.46c-0.09,0-0.18,0-0.27,0c-19.75,0-41.85,12.28-48.35,26.92
		c-5.66,12.73-18.29,20.93-32.21,20.93c-0.07,0-0.14,0-0.21,0c-14-0.08-26.63-8.44-32.17-21.3c-6.36-14.78-28.32-27.36-47.94-27.47
		l0,0C169.6,139.19,169.5,139.19,169.42,139.19z"/>
	<path class="st7" d="M248.78,427.61c-5.45,0-10.9-1.41-15.77-4.23c-1.79-1.04-44.42-25.87-86.58-66.03
		C86.97,300.73,57,242.36,57.34,183.88c0.17-29.94,12-58.02,33.29-79.07c21.13-20.89,49.09-32.37,78.78-32.37c0.22,0,0.44,0,0.67,0
		c29.37,0.17,58.55,11.73,80.25,30.13c21.97-18.15,51.43-29.33,80.9-29.2c29.94,0.17,58.02,12,79.07,33.29
		c21.05,21.29,32.54,49.51,32.37,79.44c-0.79,136.07-171.2,233.39-178.45,237.47C259.41,426.27,254.09,427.61,248.78,427.61z
		 M169.42,135.44c-13,0-25.24,5.03-34.5,14.18c-9.32,9.22-14.5,21.51-14.58,34.62c-0.16,27.79,11.77,72.47,69.53,127.49
		c22.22,21.17,44.7,37.51,59.1,47.19c14.63-9.61,37.57-25.92,60.21-47.09c57.97-54.19,70.32-98.49,70.48-126.1
		c0.08-13.11-4.96-25.47-14.17-34.79c-9.22-9.32-21.52-14.5-34.63-14.58c-0.1,0-0.2,0-0.3,0c-21.43,0-44.61,13.03-51.77,29.14
		c-5.06,11.38-16.34,18.7-28.78,18.7c-0.06,0-0.12,0-0.18,0c-12.51-0.07-23.8-7.55-28.75-19.04c-7.01-16.27-30.05-29.62-51.36-29.74
		c0,0,0,0,0,0C169.61,135.44,169.51,135.44,169.42,135.44z"/>
	<path class="st8" d="M248.78,423.86c-4.8,0-9.6-1.24-13.9-3.73c-1.78-1.03-44.03-25.64-85.87-65.5
		C90.34,298.75,60.76,241.31,61.09,183.9c0.17-28.94,11.59-56.08,32.17-76.42c20.58-20.34,47.89-31.48,76.79-31.29
		c29.61,0.17,59.01,12.25,80.24,31.3c21.35-18.66,50.73-30.37,80.27-30.37c0.22,0,0.43,0,0.64,0c28.94,0.17,56.08,11.59,76.42,32.17
		c20.34,20.58,31.45,47.85,31.29,76.79c-0.77,133.91-169.37,230.19-176.54,234.22C258.15,422.68,253.46,423.86,248.78,423.86z
		 M169.41,131.69c-14,0-27.17,5.41-37.13,15.26c-10.04,9.92-15.61,23.16-15.69,37.27c-0.17,28.53,11.97,74.29,70.69,130.23
		c23.47,22.36,47.26,39.4,61.66,48.97c14.6-9.47,38.8-26.43,62.68-48.74c59.03-55.15,71.62-100.55,71.78-128.92
		c0.08-14.11-5.34-27.41-15.26-37.45c-9.92-10.04-23.16-15.61-37.27-15.69c-0.11,0-0.21,0-0.32,0c-22.78,0-47.49,14.02-55.21,31.37
		c-4.46,10.02-14.4,16.48-25.36,16.48c-0.05,0-0.11,0-0.16,0c-11.02-0.06-20.96-6.65-25.33-16.77c-7.54-17.52-32.12-31.87-54.78-32
		h0C169.62,131.69,169.52,131.69,169.41,131.69z"/>
	<path class="st9" d="M248.78,420.11c-4.15,0-8.3-1.08-12.02-3.22c-7.05-4.08-172.68-101.37-171.92-232.97
		c0.16-27.93,11.19-54.13,31.06-73.77c19.72-19.49,45.8-30.21,73.5-30.21c0.21,0,0.42,0,0.62,0c29.89,0.17,59.54,12.84,80.23,32.59
		c20.83-19.38,50.47-31.66,80.3-31.66c0.21,0,0.42,0,0.63,0c27.94,0.16,54.14,11.19,73.78,31.06c19.64,19.87,30.37,46.19,30.2,74.13
		c-0.76,131.76-167.53,226.99-174.63,230.98C256.88,419.09,252.83,420.11,248.78,420.11z M169.41,127.94
		c-14.99,0-29.1,5.79-39.77,16.34c-10.75,10.63-16.72,24.8-16.8,39.92c-0.5,86.41,100.88,160.55,136.09,183.68
		c35.44-22.74,137.74-95.83,138.23-182.1c0.09-15.11-5.72-29.36-16.34-40.11c-10.63-10.75-24.8-16.72-39.92-16.8
		c-0.11,0-0.22,0-0.33,0c-24.13,0-50.38,15.02-58.64,33.6c-3.87,8.71-12.52,14.25-22.07,14.25c-9.53-0.06-18.13-5.75-21.9-14.51
		c-8.22-19.08-33.79-34.13-58.21-34.27c0,0,0,0,0,0C169.64,127.94,169.52,127.94,169.41,127.94z"/>
	<path class="st10" d="M248.78,416.36c-3.5,0-7.01-0.91-10.14-2.72c-6.97-4.03-170.79-100.26-170.04-229.7
		c0.16-26.93,10.79-52.19,29.95-71.13c19.01-18.79,44.16-29.12,70.87-29.12c0.2,0,0.4,0,0.6,0c30.22,0.17,60.16,13.51,80.21,34.05
		c20.35-20.31,50.6-33.36,80.94-33.12c26.93,0.16,52.2,10.79,71.13,29.95c18.93,19.15,29.28,44.54,29.12,71.47
		c-0.75,129.6-165.69,223.78-172.72,227.73C255.62,415.5,252.19,416.36,248.78,416.36z M169.41,124.19
		c-15.98,0-31.03,6.18-42.41,17.43c-11.46,11.33-17.83,26.44-17.92,42.56c-0.52,89.92,106.19,166.33,139.81,188.16
		c33.84-21.45,141.49-96.72,142.01-186.53c0.09-16.12-6.09-31.3-17.42-42.76c-11.33-11.46-26.44-17.83-42.56-17.92
		c-0.12,0-0.25,0-0.37,0c-25.9,0-53.1,15.68-62.05,35.82c-3.25,7.31-10.51,12.02-18.5,12.02c-0.04,0-0.08,0-0.12,0
		c-8.04-0.05-15.3-4.85-18.48-12.24c-8.76-20.34-35.83-36.39-61.63-36.54l0,0C169.65,124.19,169.53,124.19,169.41,124.19z"/>
	<path class="st11" d="M248.78,412.61c-2.85,0-5.71-0.74-8.26-2.22c-6.9-3.99-168.91-99.14-168.17-226.43
		c0.15-25.93,10.39-50.25,28.83-68.48c18.31-18.09,42.52-28.04,68.24-28.04c0.19,0,0.38,0,0.58,0c30.62,0.18,60.91,14.28,80.2,35.71
		c19.46-21.07,49.79-34.78,80.36-34.78c0.2,0,0.39,0,0.59,0c25.93,0.15,50.25,10.39,68.48,28.83
		c18.23,18.44,28.19,42.88,28.04,68.81c-0.31,53.46-30.3,109.42-86.72,161.83c-41.47,38.53-82.36,61.68-84.08,62.65
		C254.35,411.91,251.56,412.61,248.78,412.61z M169.41,120.44c-16.98,0-32.96,6.56-45.04,18.51
		c-12.17,12.03-18.93,28.09-19.03,45.21c-0.18,30.75,12.55,79.73,74.19,138.44c28.02,26.69,55.91,45.67,69.32,54.21
		c31.75-19.86,145.28-97.41,145.82-190.98c0.1-17.12-6.47-33.25-18.51-45.42c-12.03-12.17-28.09-18.93-45.21-19.03
		c-0.13,0-0.26,0-0.39,0c-27.27,0-55.97,16.66-65.48,38.05c-2.65,5.96-8.56,9.8-15.08,9.8c-0.03,0-0.06,0-0.1,0
		c-6.56-0.04-12.47-3.95-15.06-9.97c-9.3-21.6-37.88-38.65-65.05-38.8l0,0C169.67,120.44,169.54,120.44,169.41,120.44z"/>
	<path class="st11" d="M248.78,408.86c-2.21,0-4.41-0.57-6.39-1.71c-6.82-3.94-167.02-98.03-166.3-223.16
		c0.14-24.93,9.99-48.31,27.72-65.84c17.6-17.4,40.88-26.96,65.6-26.96c0.19,0,0.37,0,0.56,0c31.1,0.18,61.84,15.2,80.19,37.65
		c18.54-22.1,49.32-36.72,80.4-36.72c0.19,0,0.38,0,0.57,0c24.93,0.15,48.31,9.99,65.84,27.72c17.53,17.73,27.1,41.22,26.95,66.15
		c-0.3,52.4-29.88,107.42-85.52,159.11c-41.15,38.22-81.66,61.17-83.37,62.12C253.08,408.32,250.93,408.86,248.78,408.86z
		 M169.41,116.69c-17.97,0-34.89,6.95-47.68,19.59c-12.89,12.74-20.04,29.73-20.15,47.85c-0.56,97.52,118.3,178.74,147.27,197.08
		c29.17-18,148.99-97.87,149.55-195.36c0.11-18.12-6.85-35.19-19.59-48.08c-12.74-12.88-29.73-20.04-47.85-20.14
		c-28.83-0.17-59.2,17.52-69.32,40.27c-2.05,4.61-6.62,7.57-11.65,7.57c-0.02,0-0.05,0-0.07,0c-5.07-0.03-9.63-3.05-11.64-7.71
		c-10.01-23.25-39.45-40.9-68.47-41.07l0,0C169.68,116.69,169.55,116.69,169.41,116.69z"/>
	<path class="st11" d="M248.77,405.11c-1.56,0-3.11-0.4-4.51-1.21c-1.7-0.98-42.08-24.51-82.33-62.84
		c-54.01-51.44-82.39-105.75-82.1-157.05c0.14-23.93,9.59-46.37,26.61-63.19c16.89-16.7,39.23-25.87,62.96-25.87
		c0.18,0,0.36,0,0.53,0c31.71,0.18,63.01,16.31,80.17,39.97c17.37-23.32,48.73-39.04,80.43-39.04c0.19,0,0.37,0,0.55,0
		c23.93,0.14,46.37,9.59,63.19,26.6c16.82,17.02,26.01,39.57,25.87,63.5c-0.3,51.33-29.46,105.41-84.33,156.38
		c-40.83,37.92-80.96,60.65-82.65,61.6C251.81,404.73,250.29,405.11,248.77,405.11z M169.41,112.94c-18.96,0-36.81,7.33-50.31,20.67
		c-13.6,13.44-21.15,31.38-21.26,50.5c-0.34,58.39,41.42,110.49,76.51,143.92c31.55,30.05,63.01,50.54,74.46,57.61
		c25.6-15.55,152.76-97.93,153.35-199.76c0.11-19.12-7.23-37.14-20.67-50.74c-13.44-13.6-31.38-21.15-50.5-21.26
		c-0.14,0-0.29,0-0.44,0c-30.49,0-61.53,18.21-72.33,42.5c-1.44,3.25-4.67,5.34-8.22,5.34c-0.02,0-0.04,0-0.05,0
		c-3.57-0.02-6.8-2.16-8.21-5.44c-10.57-24.53-41.48-43.16-71.9-43.34h0C169.7,112.94,169.55,112.94,169.41,112.94z"/>
	<path class="st12" d="M248.77,399.11c-0.52,0-1.04-0.13-1.5-0.4c-1.68-0.97-41.46-24.15-81.2-62
		c-52.78-50.27-80.52-103.07-80.24-152.67c0.13-22.33,8.95-43.27,24.82-58.96c15.76-15.58,36.61-24.14,58.75-24.14
		c0.17,0,0.33,0,0.5,0c32.61,0.19,65.85,19.2,80.13,45.06c14.6-25.69,48.22-44.38,81.02-44.13c22.33,0.13,43.27,8.94,58.96,24.82
		c15.7,15.88,24.27,36.92,24.14,59.24c-0.36,62.71-45.01,117.28-82.41,152.02c-40.31,37.44-81.1,60.54-81.51,60.77
		C249.79,398.99,249.28,399.11,248.77,399.11z M169.41,106.94c-20.55,0-39.9,7.95-54.53,22.41c-14.74,14.57-22.92,34.01-23.04,54.73
		c-0.35,60.53,42.43,114.05,78.38,148.29c35.45,33.77,70.87,55.66,78.57,60.27c7.64-4.48,43.49-26.18,78.97-59.16
		c36.49-33.92,80.05-87.05,80.4-147.58c0.12-20.72-7.84-40.25-22.41-54.99c-14.57-14.74-34-22.92-54.73-23.04c-0.15,0-0.31,0-0.47,0
		c-32.72,0-66.11,19.74-77.82,46.06c-0.48,1.08-1.56,1.78-2.74,1.78c-0.01,0-0.01,0-0.02,0c-1.19-0.01-2.27-0.72-2.74-1.81
		c-11.45-26.59-44.71-46.77-77.37-46.96l0,0C169.72,106.94,169.56,106.94,169.41,106.94z"/>
</g>
</svg>
